# Apple ModelIO OBJ File: book
mtllib book.mtl
g Box001_wire_143225087
v -3.97578 3.4787 38.8734
v -3.97578 3.4787 34.3918
v -8.76036 3.4787 34.3918
v -8.76036 3.4787 38.8734
v -8.76036 -2.96647 34.3918
v -3.97578 -2.96647 34.3918
v -3.97578 -2.96647 38.8734
v -8.76036 -2.96647 38.8734
v 45.2477 -2.96647 38.8734
v 45.2477 -2.96647 34.3918
v 45.2477 3.4787 34.3918
v 45.2477 3.4787 38.8734
v 45.2477 -3.79395 -35.2947
v 39.8302 -3.79395 -35.2947
v 39.8302 2.65122 -35.2947
v 45.2477 2.65122 -35.2947
v -8.76036 -3.79395 -35.2947
v -8.76036 -3.79395 -30.1825
v -8.76036 2.65122 -30.1825
v -8.76036 2.65122 -35.2947
v 45.2477 0 -3.87306
v 39.8302 0 -3.87306
v 39.8302 -3.27719 1.90952
v 45.2477 -3.27719 1.90952
v -8.76036 -7.97453 -3.87306
v -3.97578 -7.97453 -3.87307
v -3.97578 -11.2517 1.90952
v -8.76036 -11.2517 1.90952
v 45.2477 -6.44517 -3.87306
v 45.2477 -9.72236 1.90952
v -8.76036 -6.44517 8.08227
v -8.76036 0 8.08227
v -8.76036 -3.27719 1.90952
v -8.76036 -9.72236 1.90952
v 39.8302 3.4787 34.3918
v 39.8302 3.4787 38.8734
v 45.2477 -11.2517 1.90952
v 45.2477 -7.97453 8.08227
v 39.8302 -7.97453 8.08227
v 39.8302 -11.2517 1.90952
v 39.8302 -2.96647 38.8734
v -3.97578 -3.79395 -35.2947
v -3.97578 2.65122 -35.2947
v -3.97578 2.65122 -30.1825
v 39.8302 2.65122 -30.1825
v 45.2477 -3.79395 -30.1825
v 39.8302 -3.79395 -30.1825
v -3.97578 -7.97453 8.08227
v -3.97578 -3.79395 -30.1825
v -8.76036 -6.44517 -3.87306
v -8.76036 0 -3.87306
v 45.2477 2.65122 -30.1825
v -3.97578 6.25233 -3.87307
v 39.8302 6.25233 -3.87306
v 39.8302 8.90355 -30.1825
v -3.97578 8.90355 -30.1825
v 39.8302 -6.44517 -3.87306
v -3.97578 -6.44517 -3.87307
v -3.97578 0 -3.87307
v -3.97578 0 8.08227
v -3.97578 -6.44517 8.08227
v 45.2477 -6.44517 8.08227
v 45.2477 0 8.08227
v 39.8302 0 8.08227
v 39.8302 -2.96647 34.3918
v 39.8302 6.25233 8.08227
v -3.97578 6.25233 8.08227
v -3.97578 9.73103 34.3918
v 39.8302 9.73103 34.3918
v -3.97578 2.97514 1.90952
v 39.8302 2.97514 1.90952
v 39.8302 -7.97453 -3.87306
v 45.2477 -7.97453 -3.87306
v -3.97578 -3.27719 1.90952
v 39.8302 -6.44517 8.08227
v -8.76036 -7.97453 8.08227
vn 0 1 0
vn 2.61274e-08 0.996548 -0.0524325
vn 3.48366e-08 0.997124 -0.0436937
vn 0 1 -0
vn -3.48366e-08 -0.997124 0.0436937
vn -1.55158e-08 -0.995684 0.0655404
vn 0 -1 0
vn -7.97288e-07 0 0.999997
vn -3.55103e-07 0 0.999997
vn 0.999997 -0 0
vn 0 0 -1
vn 4.35407e-08 0 -0.999998
vn -0.999997 0 0
vn 0 0.911647 0.362123
vn 0 0.953303 0.231193
vn 0 0.874405 0.172396
vn 0 0.87882 -0.148263
vn -4.91385e-08 -0.869994 -0.493056
vn -2.9181e-08 -0.869996 -0.493057
vn -1.95551e-08 -0.875292 -0.108265
vn 5.86831e-08 -0.878824 0.148264
vn 0.999999 0 0
vn -0.999999 0 0
vn -0.999998 0 -0
vn 0 0.999998 0
vn 0 0.995685 -0.0655406
vn 0 0.996548 -0.0524325
vn -4.24074e-08 -0.876613 -0.0120664
vn -1.55479e-07 -0.883235 0.468921
vn -5.31403e-08 -0.883236 0.468922
vn 1.21569e-09 -0.876616 -0.0120669
vn 0 0 1
vn 2.90271e-08 0 0.999998
vn -2.07708e-07 0 -0.999996
vn 0 0.999998 0
vn 1.99846e-08 0.99874 0.0250657
vn 0 0.998991 0.0200525
vn 0 -0.997479 -0.0501313
vn -0 -0.999998 0
vn 4.66899e-08 -0.883239 0.468923
vn -9.86067e-09 -0.997839 -0.0429697
vn 3.33077e-08 0.996641 0.0668419
vn 0 0.996639 0.0668418
vn -3.33077e-08 -0.996641 -0.0668419
vn 0.999997 0 0
vn -7.21596e-09 0.953306 0.231194
vn -4.30561e-09 0.911651 0.362126
vn -5.45691e-09 0.99496 0.100263
vn 0 -0.994959 -0.100263
vn -3.25801e-08 -0.994961 -0.100263
vn 5.91308e-08 0.932477 0.296659
vn 5.97972e-08 0.937305 -0.300002
vn -5.22549e-08 -0.991372 0.131081
vn 4.75612e-09 -0.991367 0.131081
vn 0.999999 0 0
vn 0 0.955326 -0.243694
vn 0 0.919281 -0.356308
vn 2.37806e-09 -0.995682 0.0655403
vn 0 -0.994247 0.0873874
vn -8.159e-09 0.955322 -0.243694
vn -7.13418e-09 0.991364 -0.13108
vn -3.57802e-09 0.874411 0.172397
vn -3.40288e-09 0.878825 -0.148263
vn 3.57802e-09 -0.869992 -0.493055
vn 0 -0.86999 -0.493054
vn 3.2759e-08 0.874409 0.172396
vn 3.11556e-08 0.878824 -0.148263
vn 9.51224e-10 -0.991369 0.131081
vt 0.393288 0.522686
vt 0.393148 0.493566
vt 0.423346 0.493579
vt 0.424417 0.522314
vt 0.542304 0.96992
vt 0.573884 0.969919
vt 0.573884 0.9995
vt 0.542304 0.9995
vt 0.424749 0.564336
vt 0.39356 0.564572
vt 0.030865 0.521234
vt 0.03265 0.491547
vt 0.073957 0.494573
vt 0.073323 0.523412
vt 0.07303 0.000569
vt 0.108339 0.0005
vt 0.108353 0.04244
vt 0.073112 0.042575
vt 0.46717 0.044394
vt 0.465741 0.078213
vt 0.424157 0.075919
vt 0.424649 0.042908
vt 0.070186 0.239648
vt 0.104932 0.242475
vt 0.099406 0.287568
vt 0.059556 0.285302
vt 0.542301 0.717319
vt 0.573881 0.717318
vt 0.573882 0.75546
vt 0.542302 0.755461
vt 0.030932 0.245882
vt 0.010605 0.285406
vt 0.467634 0.322703
vt 0.428464 0.329296
vt 0.438394 0.280819
vt 0.487272 0.28036
vt 0.108685 0.494447
vt 0.108636 0.523526
vt 0.898775 0.755457
vt 0.898776 0.796225
vt 0.863018 0.796225
vt 0.863017 0.755457
vt 0.073334 0.565468
vt 0.108685 0.565459
vt 0.393499 0.000813
vt 0.393422 0.042795
vt 0.393294 0.076069
vt 0.108387 0.075616
vt 0.898773 0.509953
vt 0.898773 0.543695
vt 0.863015 0.543696
vt 0.863015 0.509953
vt 0.573882 0.796228
vt 0.573879 0.543699
vt 0.573879 0.509956
vt 0.424713 0.000861
vt 0.466679 0.241082
vt 0.427913 0.234757
vt 0.073946 0.075766
vt 0.542299 0.509957
vt 0.5423 0.543699
vt 0.030046 0.044267
vt 0.031634 0.07843
vt 0.822636 0.20629
vt 0.543433 0.21266
vt 0.540582 0.044767
vt 0.826621 0.041326
vt 0.898775 0.717327
vt 0.863017 0.717327
vt 0.573881 0.71733
vt 0.399363 0.237726
vt 0.39766 0.326798
vt 0.542302 0.79624
vt 0.573882 0.79624
vt 0.030647 0.327692
vt 0.0696 0.334401
vt 0.46703 0.519907
vt 0.465122 0.490177
vt 0.102229 0.331509
vt 0.898778 0.999496
vt 0.86302 0.999497
vt 0.86302 0.969916
vt 0.898778 0.969916
vt 0.545248 0.303207
vt 0.825003 0.296948
vt 0.826615 0.464211
vt 0.543732 0.468523
vt 0.542301 0.717331
vt 0.834169 0.252294
vt 0.533864 0.254811
vt 0.863017 0.717315
vt 0.898775 0.717315
vt 0.403246 0.27959
vt 0.863018 0.796237
vt 0.898776 0.796237
vt 0.542302 0.796228
vt 0.020509 0.327236
vt 0.0005 0.285391
vt 0.497352 0.280258
vt 0.47774 0.322163
vt 0.476781 0.241405
vt 0.020812 0.246286
vt 0.867863 0.046981
vt 0.860485 0.2133
vt 0.878351 0.251093
vt 0.861699 0.2905
vt 0.867574 0.457587
vt 0.827231 0.504587
vt 0.544347 0.508898
vt 0.503109 0.462357
vt 0.507461 0.296331
vt 0.489736 0.25608
vt 0.506628 0.219004
vt 0.498736 0.050648
vt 0.540091 0.003941
vt 0.82613 0.0005
usemtl wire_143225087
f 1/1/1 2/2/2 3/3/3
f 1/1/1 3/3/3 4/4/4
f 5/5/5 6/6/6 7/7/7
f 5/5/5 7/7/7 8/8/7
f 8/9/8 7/10/9 1/1/9
f 8/9/8 1/1/9 4/4/8
f 9/11/10 10/12/10 11/13/10
f 9/11/10 11/13/10 12/14/10
f 13/15/11 14/16/12 15/17/12
f 13/15/11 15/17/12 16/18/11
f 17/19/13 18/20/13 19/21/13
f 17/19/13 19/21/13 20/22/13
f 21/23/14 22/24/15 23/25/16
f 21/23/14 23/25/16 24/26/17
f 25/27/18 26/28/19 27/29/20
f 25/27/18 27/29/20 28/30/21
f 29/31/22 21/23/10 24/26/22
f 29/31/22 24/26/22 30/32/22
f 31/33/23 32/34/24 33/35/23
f 31/33/23 33/35/23 34/36/23
f 12/14/25 11/13/26 35/37/27
f 12/14/25 35/37/27 36/38/1
f 37/39/28 38/40/29 39/41/30
f 37/39/28 39/41/30 40/42/31
f 9/43/32 12/14/32 36/38/33
f 9/43/32 36/38/33 41/44/8
f 42/45/34 43/46/34 15/17/12
f 42/45/34 15/17/12 14/16/12
f 43/46/35 44/47/36 45/48/37
f 43/46/35 45/48/37 15/17/35
f 13/49/7 46/50/38 47/51/38
f 13/49/7 47/51/38 14/52/39
f 36/38/1 35/37/27 2/2/2
f 36/38/1 2/2/2 1/1/1
f 40/42/31 39/41/30 48/53/40
f 40/42/31 48/53/40 27/29/20
f 41/44/8 36/38/33 1/1/9
f 41/44/8 1/1/9 7/10/9
f 14/52/39 47/51/38 49/54/41
f 14/52/39 49/54/41 42/55/39
f 17/56/12 20/22/12 43/46/34
f 17/56/12 43/46/34 42/45/34
f 20/22/1 19/21/42 44/47/36
f 20/22/1 44/47/36 43/46/35
f 50/57/24 51/58/24 19/21/13
f 50/57/24 19/21/13 18/20/13
f 16/18/1 15/17/35 45/48/37
f 16/18/1 45/48/37 52/59/43
f 17/60/7 42/55/39 49/54/41
f 17/60/7 49/54/41 18/61/44
f 13/62/45 16/18/45 52/59/45
f 13/62/45 52/59/45 46/63/10
f 53/64/46 54/65/47 55/66/48
f 53/64/46 55/66/48 56/67/48
f 29/68/49 57/69/49 47/51/38
f 29/68/49 47/51/38 46/50/38
f 57/69/49 58/70/50 49/54/41
f 57/69/49 49/54/41 47/51/38
f 51/58/51 59/71/51 19/21/42
f 59/71/51 44/47/36 19/21/42
f 60/72/52 32/34/52 2/2/2
f 32/34/52 3/3/3 2/2/2
f 31/73/53 61/74/54 6/6/6
f 31/73/53 6/6/6 5/5/5
f 62/75/55 63/76/55 11/13/10
f 62/75/55 11/13/10 10/12/10
f 8/77/13 4/4/13 3/3/13
f 8/77/13 3/3/13 5/78/13
f 63/76/56 64/79/57 35/37/27
f 63/76/56 35/37/27 11/13/26
f 9/80/39 41/81/7 65/82/58
f 9/80/39 65/82/58 10/83/59
f 66/84/60 67/85/57 68/86/61
f 66/84/60 68/86/61 69/87/61
f 41/81/7 7/7/7 6/6/6
f 41/81/7 6/6/6 65/82/58
f 52/59/43 45/48/37 22/24/15
f 52/59/43 22/24/15 21/23/14
f 18/61/44 49/54/41 58/70/50
f 18/61/44 58/70/50 50/88/50
f 46/63/10 52/59/45 21/23/10
f 46/63/10 21/23/10 29/31/22
f 34/36/23 33/35/23 51/58/24
f 34/36/23 51/58/24 50/57/24
f 70/89/62 71/90/63 54/65/47
f 70/89/62 54/65/47 53/64/46
f 37/39/28 40/42/31 72/91/64
f 37/39/28 72/91/64 73/92/65
f 40/42/31 27/29/20 26/28/19
f 40/42/31 26/28/19 72/91/64
f 33/35/66 74/93/67 59/71/51
f 33/35/66 59/71/51 51/58/51
f 5/78/13 3/3/13 32/34/24
f 5/78/13 32/34/24 31/33/23
f 10/83/59 65/82/58 75/94/68
f 10/83/59 75/94/68 62/95/53
f 65/82/58 6/6/6 61/74/54
f 65/82/58 61/74/54 75/94/68
f 74/93/67 33/35/66 32/34/52
f 74/93/67 32/34/52 60/72/52
f 28/30/21 27/29/20 48/53/40
f 28/30/21 48/53/40 76/96/40
f 30/32/22 24/26/22 62/75/55
f 24/26/22 63/76/55 62/75/55
f 24/26/17 23/25/16 64/79/57
f 24/26/17 64/79/57 63/76/56
f 71/90/63 70/89/62 67/85/57
f 71/90/63 67/85/57 66/84/60
f 30/32/22 62/75/55 38/97/22
f 30/32/22 38/97/22 37/98/22
f 62/95/32 75/94/32 39/41/32
f 62/95/32 39/41/32 38/40/32
f 75/94/32 61/74/32 48/53/32
f 75/94/32 48/53/32 39/41/32
f 61/74/32 31/73/32 48/53/32
f 31/73/32 76/96/32 48/53/32
f 31/33/23 34/36/23 28/99/23
f 31/33/23 28/99/23 76/100/23
f 34/36/23 50/57/24 25/101/23
f 34/36/23 25/101/23 28/99/23
f 50/88/11 58/70/11 26/28/11
f 50/88/11 26/28/11 25/27/11
f 58/70/11 57/69/11 72/91/11
f 58/70/11 72/91/11 26/28/11
f 57/69/11 29/68/11 73/92/11
f 57/69/11 73/92/11 72/91/11
f 29/31/22 30/32/22 37/98/22
f 29/31/22 37/98/22 73/102/22
f 44/103/23 59/104/23 53/64/23
f 44/103/23 53/64/23 56/67/23
f 59/104/23 74/105/23 70/89/23
f 59/104/23 70/89/23 53/64/23
f 74/105/23 60/106/24 67/85/24
f 74/105/23 67/85/24 70/89/23
f 60/106/24 2/107/23 68/86/23
f 60/106/24 68/86/23 67/85/24
f 2/108/33 35/109/33 69/87/33
f 2/108/33 69/87/33 68/86/33
f 35/110/55 64/111/55 69/87/55
f 64/111/55 66/84/55 69/87/55
f 64/111/55 23/112/22 71/90/55
f 64/111/55 71/90/55 66/84/55
f 23/112/22 22/113/55 54/65/22
f 23/112/22 54/65/22 71/90/55
f 22/113/55 45/114/55 55/66/55
f 22/113/55 55/66/55 54/65/22
f 45/115/12 44/116/12 56/67/12
f 45/115/12 56/67/12 55/66/12
s off
