# 3ds Max Wavefront OBJ Exporter v0.99 - (c)2007 guruware
# File Created: 12.11.2021 18:17:26

mtllib BookPivot.mtl

#
# object t
#

v  -22.1537 3.4787 40.0036
v  -22.1537 3.4787 35.5220
v  -26.9382 3.4787 35.5220
v  -26.9382 3.4787 40.0036
v  -26.9382 -2.9665 35.5220
v  -22.1537 -2.9665 35.5220
v  -22.1537 -2.9665 40.0036
v  -26.9382 -2.9665 40.0036
v  27.0698 -2.9665 40.0036
v  27.0698 -2.9665 35.5220
v  27.0698 3.4787 35.5220
v  27.0698 3.4787 40.0036
v  27.0698 -3.7940 -34.1645
v  21.6523 -3.7940 -34.1645
v  21.6523 2.6512 -34.1645
v  27.0698 2.6512 -34.1645
v  -26.9382 -3.7940 -34.1645
v  -26.9382 -3.7940 -29.0523
v  -26.9382 2.6512 -29.0523
v  -26.9382 2.6512 -34.1645
v  27.0698 0.0000 -2.7429
v  21.6523 0.0000 -2.7429
v  21.6523 -3.2772 3.0397
v  27.0698 -3.2772 3.0397
v  -26.9382 -7.9745 -2.7429
v  -22.1537 -7.9745 -2.7429
v  -22.1537 -11.2517 3.0397
v  -26.9382 -11.2517 3.0397
v  27.0698 -6.4452 -2.7429
v  27.0698 -9.7224 3.0397
v  -26.9382 -6.4452 9.2125
v  -26.9382 0.0000 9.2125
v  -26.9382 -3.2772 3.0397
v  -26.9382 -9.7224 3.0397
v  21.6523 3.4787 35.5220
v  21.6523 3.4787 40.0036
v  27.0698 -11.2517 3.0397
v  27.0698 -7.9745 9.2125
v  21.6523 -7.9745 9.2125
v  21.6523 -11.2517 3.0397
v  21.6523 -2.9665 40.0036
v  -22.1537 -3.7940 -34.1645
v  -22.1537 2.6512 -34.1645
v  -22.1537 2.6512 -29.0523
v  21.6523 2.6512 -29.0523
v  27.0698 -3.7940 -29.0523
v  21.6523 -3.7940 -29.0523
v  -22.1537 -7.9745 9.2125
v  -22.1537 -3.7940 -29.0523
v  -26.9382 -6.4452 -2.7429
v  -26.9382 0.0000 -2.7429
v  27.0698 2.6512 -29.0523
v  -22.1537 6.2523 -2.7429
v  21.6523 6.2523 -2.7429
v  21.6523 8.9036 -29.0523
v  -22.1537 8.9036 -29.0523
v  21.6523 -6.4452 -2.7429
v  -22.1537 -6.4452 -2.7429
v  -22.1537 0.0000 -2.7429
v  -22.1537 0.0000 9.2125
v  -22.1537 -6.4452 9.2125
v  27.0698 -6.4452 9.2125
v  27.0698 0.0000 9.2125
v  21.6523 0.0000 9.2125
v  21.6523 -2.9665 35.5220
v  21.6523 6.2523 9.2125
v  -22.1537 6.2523 9.2125
v  -22.1537 9.7310 35.5220
v  21.6523 9.7310 35.5220
v  -22.1537 2.9751 3.0397
v  21.6523 2.9751 3.0397
v  21.6523 -7.9745 -2.7429
v  27.0698 -7.9745 -2.7429
v  -22.1537 -3.2772 3.0397
v  21.6523 -6.4452 9.2125
v  -26.9382 -7.9745 9.2125
# 76 vertices

vn 0.0000 1.0000 0.0000
vn 0.0000 0.9965 -0.0524
vn 0.0000 0.9971 -0.0437
vn 0.0000 1.0000 0.0000
vn 0.0000 0.9971 -0.0437
vn 0.0000 1.0000 -0.0000
vn -0.0000 -0.9971 0.0437
vn -0.0000 -0.9957 0.0655
vn 0.0000 -1.0000 0.0000
vn -0.0000 -0.9971 0.0437
vn 0.0000 -1.0000 0.0000
vn 0.0000 -1.0000 0.0000
vn -0.0000 0.0000 1.0000
vn -0.0000 0.0000 1.0000
vn -0.0000 0.0000 1.0000
vn -0.0000 0.0000 1.0000
vn -0.0000 0.0000 1.0000
vn -0.0000 0.0000 1.0000
vn 1.0000 -0.0000 0.0000
vn 1.0000 -0.0000 0.0000
vn 1.0000 -0.0000 0.0000
vn 1.0000 -0.0000 0.0000
vn 1.0000 -0.0000 0.0000
vn 1.0000 -0.0000 0.0000
vn 0.0000 0.0000 -1.0000
vn 0.0000 0.0000 -1.0000
vn 0.0000 0.0000 -1.0000
vn 0.0000 0.0000 -1.0000
vn 0.0000 0.0000 -1.0000
vn 0.0000 0.0000 -1.0000
vn -1.0000 0.0000 0.0000
vn -1.0000 0.0000 0.0000
vn -1.0000 0.0000 0.0000
vn -1.0000 0.0000 0.0000
vn -1.0000 0.0000 0.0000
vn -1.0000 0.0000 0.0000
vn 0.0000 0.9116 0.3621
vn 0.0000 0.9533 0.2312
vn 0.0000 0.8744 0.1724
vn 0.0000 0.9116 0.3621
vn 0.0000 0.8744 0.1724
vn 0.0000 0.8788 -0.1483
vn -0.0000 -0.8700 -0.4931
vn -0.0000 -0.8700 -0.4931
vn -0.0000 -0.8753 -0.1083
vn -0.0000 -0.8700 -0.4931
vn -0.0000 -0.8753 -0.1083
vn 0.0000 -0.8788 0.1483
vn 1.0000 0.0000 0.0000
vn 1.0000 -0.0000 0.0000
vn 1.0000 0.0000 0.0000
vn 1.0000 0.0000 0.0000
vn 1.0000 0.0000 0.0000
vn 1.0000 0.0000 0.0000
vn -1.0000 0.0000 0.0000
vn -1.0000 0.0000 -0.0000
vn -1.0000 0.0000 0.0000
vn -1.0000 0.0000 0.0000
vn -1.0000 0.0000 0.0000
vn -1.0000 0.0000 0.0000
vn 0.0000 1.0000 0.0000
vn 0.0000 0.9957 -0.0655
vn 0.0000 0.9965 -0.0524
vn 0.0000 1.0000 0.0000
vn 0.0000 0.9965 -0.0524
vn 0.0000 1.0000 0.0000
vn -0.0000 -0.8766 -0.0121
vn -0.0000 -0.8832 0.4689
vn -0.0000 -0.8832 0.4689
vn -0.0000 -0.8766 -0.0121
vn -0.0000 -0.8832 0.4689
vn 0.0000 -0.8766 -0.0121
vn 0.0000 0.0000 1.0000
vn 0.0000 0.0000 1.0000
vn 0.0000 0.0000 1.0000
vn 0.0000 0.0000 1.0000
vn 0.0000 0.0000 1.0000
vn -0.0000 0.0000 1.0000
vn -0.0000 0.0000 -1.0000
vn -0.0000 0.0000 -1.0000
vn 0.0000 0.0000 -1.0000
vn -0.0000 0.0000 -1.0000
vn 0.0000 0.0000 -1.0000
vn 0.0000 0.0000 -1.0000
vn 0.0000 1.0000 0.0000
vn 0.0000 0.9987 0.0251
vn 0.0000 0.9990 0.0201
vn 0.0000 1.0000 0.0000
vn 0.0000 0.9990 0.0201
vn 0.0000 1.0000 0.0000
vn 0.0000 -1.0000 0.0000
vn 0.0000 -0.9975 -0.0501
vn 0.0000 -0.9975 -0.0501
vn 0.0000 -1.0000 0.0000
vn 0.0000 -0.9975 -0.0501
vn -0.0000 -1.0000 0.0000
vn 0.0000 1.0000 0.0000
vn 0.0000 0.9965 -0.0524
vn 0.0000 0.9965 -0.0524
vn 0.0000 1.0000 0.0000
vn 0.0000 0.9965 -0.0524
vn 0.0000 1.0000 0.0000
vn 0.0000 -0.8766 -0.0121
vn -0.0000 -0.8832 0.4689
vn 0.0000 -0.8832 0.4689
vn 0.0000 -0.8766 -0.0121
vn 0.0000 -0.8832 0.4689
vn -0.0000 -0.8753 -0.1083
vn -0.0000 0.0000 1.0000
vn 0.0000 0.0000 1.0000
vn -0.0000 0.0000 1.0000
vn -0.0000 0.0000 1.0000
vn -0.0000 0.0000 1.0000
vn -0.0000 0.0000 1.0000
vn -0.0000 -1.0000 0.0000
vn 0.0000 -0.9975 -0.0501
vn -0.0000 -0.9978 -0.0430
vn -0.0000 -1.0000 0.0000
vn -0.0000 -0.9978 -0.0430
vn -0.0000 -1.0000 0.0000
vn 0.0000 0.0000 -1.0000
vn 0.0000 0.0000 -1.0000
vn -0.0000 0.0000 -1.0000
vn 0.0000 0.0000 -1.0000
vn -0.0000 0.0000 -1.0000
vn -0.0000 0.0000 -1.0000
vn 0.0000 1.0000 0.0000
vn 0.0000 0.9966 0.0668
vn 0.0000 0.9987 0.0251
vn 0.0000 1.0000 0.0000
vn 0.0000 0.9987 0.0251
vn 0.0000 1.0000 0.0000
vn -1.0000 0.0000 -0.0000
vn -1.0000 0.0000 -0.0000
vn -1.0000 0.0000 0.0000
vn -1.0000 0.0000 -0.0000
vn -1.0000 0.0000 0.0000
vn -1.0000 0.0000 0.0000
vn 0.0000 1.0000 0.0000
vn 0.0000 1.0000 0.0000
vn 0.0000 0.9990 0.0201
vn 0.0000 1.0000 0.0000
vn 0.0000 0.9990 0.0201
vn 0.0000 0.9966 0.0668
vn 0.0000 -1.0000 0.0000
vn -0.0000 -1.0000 0.0000
vn -0.0000 -0.9978 -0.0430
vn 0.0000 -1.0000 0.0000
vn -0.0000 -0.9978 -0.0430
vn -0.0000 -0.9966 -0.0668
vn 1.0000 0.0000 0.0000
vn 1.0000 0.0000 0.0000
vn 1.0000 0.0000 0.0000
vn 1.0000 0.0000 0.0000
vn 1.0000 0.0000 0.0000
vn 1.0000 -0.0000 0.0000
vn -0.0000 0.9533 0.2312
vn -0.0000 0.9117 0.3621
vn -0.0000 0.9950 0.1003
vn -0.0000 0.9533 0.2312
vn -0.0000 0.9950 0.1003
vn -0.0000 0.9950 0.1003
vn 0.0000 -0.9950 -0.1003
vn 0.0000 -0.9950 -0.1003
vn 0.0000 -0.9975 -0.0501
vn 0.0000 -0.9950 -0.1003
vn 0.0000 -0.9975 -0.0501
vn 0.0000 -0.9975 -0.0501
vn 0.0000 -0.9950 -0.1003
vn -0.0000 -0.9950 -0.1003
vn -0.0000 -0.9978 -0.0430
vn 0.0000 -0.9950 -0.1003
vn -0.0000 -0.9978 -0.0430
vn 0.0000 -0.9975 -0.0501
vn 0.0000 0.9325 0.2967
vn 0.0000 0.9325 0.2967
vn 0.0000 0.9966 0.0668
vn 0.0000 0.9325 0.2967
vn 0.0000 0.9987 0.0251
vn 0.0000 0.9966 0.0668
vn 0.0000 0.9373 -0.3000
vn 0.0000 0.9373 -0.3000
vn 0.0000 0.9965 -0.0524
vn 0.0000 0.9373 -0.3000
vn 0.0000 0.9971 -0.0437
vn 0.0000 0.9965 -0.0524
vn -0.0000 -0.9914 0.1311
vn 0.0000 -0.9914 0.1311
vn -0.0000 -0.9957 0.0655
vn -0.0000 -0.9914 0.1311
vn -0.0000 -0.9957 0.0655
vn -0.0000 -0.9971 0.0437
vn 1.0000 0.0000 0.0000
vn 1.0000 0.0000 0.0000
vn 1.0000 -0.0000 0.0000
vn 1.0000 0.0000 0.0000
vn 1.0000 -0.0000 0.0000
vn 1.0000 -0.0000 0.0000
vn -1.0000 0.0000 0.0000
vn -1.0000 0.0000 0.0000
vn -1.0000 0.0000 0.0000
vn -1.0000 0.0000 0.0000
vn -1.0000 0.0000 0.0000
vn -1.0000 0.0000 0.0000
vn 0.0000 0.9553 -0.2437
vn 0.0000 0.9193 -0.3563
vn 0.0000 0.9965 -0.0524
vn 0.0000 0.9553 -0.2437
vn 0.0000 0.9965 -0.0524
vn 0.0000 0.9957 -0.0655
vn -0.0000 -1.0000 0.0000
vn 0.0000 -1.0000 0.0000
vn 0.0000 -0.9957 0.0655
vn -0.0000 -1.0000 0.0000
vn 0.0000 -0.9957 0.0655
vn 0.0000 -0.9942 0.0874
vn -0.0000 0.9553 -0.2437
vn 0.0000 0.9193 -0.3563
vn -0.0000 0.9914 -0.1311
vn -0.0000 0.9553 -0.2437
vn -0.0000 0.9914 -0.1311
vn -0.0000 0.9914 -0.1311
vn 0.0000 -1.0000 0.0000
vn 0.0000 -1.0000 0.0000
vn -0.0000 -0.9957 0.0655
vn 0.0000 -1.0000 0.0000
vn -0.0000 -0.9957 0.0655
vn 0.0000 -0.9957 0.0655
vn 0.0000 0.9966 0.0668
vn 0.0000 0.9990 0.0201
vn 0.0000 0.9533 0.2312
vn 0.0000 0.9966 0.0668
vn 0.0000 0.9533 0.2312
vn 0.0000 0.9116 0.3621
vn -0.0000 -0.9966 -0.0668
vn -0.0000 -0.9978 -0.0430
vn -0.0000 -0.9950 -0.1003
vn -0.0000 -0.9966 -0.0668
vn -0.0000 -0.9950 -0.1003
vn -0.0000 -0.9950 -0.1003
vn 1.0000 -0.0000 0.0000
vn 1.0000 0.0000 0.0000
vn 1.0000 -0.0000 0.0000
vn 1.0000 -0.0000 0.0000
vn 1.0000 -0.0000 0.0000
vn 1.0000 0.0000 0.0000
vn -1.0000 0.0000 0.0000
vn -1.0000 0.0000 0.0000
vn -1.0000 0.0000 -0.0000
vn -1.0000 0.0000 0.0000
vn -1.0000 0.0000 -0.0000
vn -1.0000 0.0000 -0.0000
vn -0.0000 0.8744 0.1724
vn -0.0000 0.8788 -0.1483
vn -0.0000 0.9117 0.3621
vn -0.0000 0.8744 0.1724
vn -0.0000 0.9117 0.3621
vn -0.0000 0.9533 0.2312
vn -0.0000 -0.8766 -0.0121
vn 0.0000 -0.8766 -0.0121
vn 0.0000 -0.8700 -0.4931
vn -0.0000 -0.8766 -0.0121
vn 0.0000 -0.8700 -0.4931
vn 0.0000 -0.8700 -0.4931
vn 0.0000 -0.8766 -0.0121
vn -0.0000 -0.8753 -0.1083
vn -0.0000 -0.8700 -0.4931
vn 0.0000 -0.8766 -0.0121
vn -0.0000 -0.8700 -0.4931
vn 0.0000 -0.8700 -0.4931
vn 0.0000 0.8744 0.1724
vn 0.0000 0.8788 -0.1483
vn 0.0000 0.9325 0.2967
vn 0.0000 0.8744 0.1724
vn 0.0000 0.9325 0.2967
vn 0.0000 0.9325 0.2967
vn -1.0000 0.0000 0.0000
vn -1.0000 0.0000 0.0000
vn -1.0000 0.0000 -0.0000
vn -1.0000 0.0000 0.0000
vn -1.0000 0.0000 -0.0000
vn -1.0000 0.0000 0.0000
vn 0.0000 -0.9942 0.0874
vn 0.0000 -0.9957 0.0655
vn 0.0000 -0.9914 0.1311
vn 0.0000 -0.9942 0.0874
vn 0.0000 -0.9914 0.1311
vn -0.0000 -0.9914 0.1311
vn 0.0000 -0.9957 0.0655
vn -0.0000 -0.9957 0.0655
vn 0.0000 -0.9914 0.1311
vn 0.0000 -0.9957 0.0655
vn 0.0000 -0.9914 0.1311
vn 0.0000 -0.9914 0.1311
vn 0.0000 0.8788 -0.1483
vn 0.0000 0.8744 0.1724
vn 0.0000 0.9373 -0.3000
vn 0.0000 0.8788 -0.1483
vn 0.0000 0.9373 -0.3000
vn 0.0000 0.9373 -0.3000
vn 0.0000 -0.8788 0.1483
vn -0.0000 -0.8753 -0.1083
vn 0.0000 -0.8832 0.4689
vn 0.0000 -0.8788 0.1483
vn 0.0000 -0.8832 0.4689
vn 0.0000 -0.8832 0.4689
vn 1.0000 0.0000 0.0000
vn 1.0000 0.0000 0.0000
vn 1.0000 0.0000 0.0000
vn 1.0000 0.0000 0.0000
vn 1.0000 0.0000 0.0000
vn 1.0000 0.0000 0.0000
vn 0.0000 0.8788 -0.1483
vn 0.0000 0.8744 0.1724
vn 0.0000 0.9193 -0.3563
vn 0.0000 0.8788 -0.1483
vn 0.0000 0.9193 -0.3563
vn 0.0000 0.9553 -0.2437
vn -0.0000 0.8788 -0.1483
vn -0.0000 0.8744 0.1724
vn 0.0000 0.9193 -0.3563
vn -0.0000 0.8788 -0.1483
vn 0.0000 0.9193 -0.3563
vn -0.0000 0.9553 -0.2437
vn 1.0000 0.0000 0.0000
vn 1.0000 0.0000 0.0000
vn 1.0000 0.0000 0.0000
vn 1.0000 0.0000 0.0000
vn 1.0000 0.0000 0.0000
vn 1.0000 0.0000 0.0000
vn 0.0000 0.0000 1.0000
vn 0.0000 0.0000 1.0000
vn 0.0000 0.0000 1.0000
vn 0.0000 0.0000 1.0000
vn 0.0000 0.0000 1.0000
vn 0.0000 0.0000 1.0000
vn 0.0000 0.0000 1.0000
vn 0.0000 0.0000 1.0000
vn 0.0000 0.0000 1.0000
vn 0.0000 0.0000 1.0000
vn 0.0000 0.0000 1.0000
vn 0.0000 0.0000 1.0000
vn 0.0000 0.0000 1.0000
vn 0.0000 0.0000 1.0000
vn 0.0000 0.0000 1.0000
vn 0.0000 0.0000 1.0000
vn 0.0000 0.0000 1.0000
vn 0.0000 0.0000 1.0000
vn -1.0000 0.0000 0.0000
vn -1.0000 0.0000 0.0000
vn -1.0000 0.0000 0.0000
vn -1.0000 0.0000 0.0000
vn -1.0000 0.0000 0.0000
vn -1.0000 0.0000 0.0000
vn -1.0000 0.0000 0.0000
vn -1.0000 0.0000 -0.0000
vn -1.0000 0.0000 0.0000
vn -1.0000 0.0000 0.0000
vn -1.0000 0.0000 0.0000
vn -1.0000 0.0000 0.0000
vn 0.0000 0.0000 -1.0000
vn 0.0000 0.0000 -1.0000
vn 0.0000 0.0000 -1.0000
vn 0.0000 0.0000 -1.0000
vn 0.0000 0.0000 -1.0000
vn 0.0000 0.0000 -1.0000
vn 0.0000 0.0000 -1.0000
vn 0.0000 0.0000 -1.0000
vn 0.0000 0.0000 -1.0000
vn 0.0000 0.0000 -1.0000
vn 0.0000 0.0000 -1.0000
vn 0.0000 0.0000 -1.0000
vn 0.0000 0.0000 -1.0000
vn 0.0000 0.0000 -1.0000
vn 0.0000 0.0000 -1.0000
vn 0.0000 0.0000 -1.0000
vn 0.0000 0.0000 -1.0000
vn 0.0000 0.0000 -1.0000
vn 1.0000 0.0000 0.0000
vn 1.0000 0.0000 0.0000
vn 1.0000 0.0000 0.0000
vn 1.0000 0.0000 0.0000
vn 1.0000 0.0000 0.0000
vn 1.0000 0.0000 0.0000
vn -1.0000 0.0000 0.0000
vn -1.0000 0.0000 0.0000
vn -1.0000 0.0000 0.0000
vn -1.0000 0.0000 0.0000
vn -1.0000 0.0000 0.0000
vn -1.0000 0.0000 0.0000
vn -1.0000 0.0000 0.0000
vn -1.0000 0.0000 0.0000
vn -1.0000 0.0000 0.0000
vn -1.0000 0.0000 0.0000
vn -1.0000 0.0000 0.0000
vn -1.0000 0.0000 0.0000
vn -1.0000 0.0000 0.0000
vn -1.0000 0.0000 -0.0000
vn -1.0000 0.0000 -0.0000
vn -1.0000 0.0000 0.0000
vn -1.0000 0.0000 -0.0000
vn -1.0000 0.0000 0.0000
vn -1.0000 0.0000 -0.0000
vn -1.0000 0.0000 0.0000
vn -1.0000 0.0000 0.0000
vn -1.0000 0.0000 -0.0000
vn -1.0000 0.0000 0.0000
vn -1.0000 0.0000 -0.0000
vn 0.0000 0.0000 1.0000
vn 0.0000 0.0000 1.0000
vn 0.0000 0.0000 1.0000
vn 0.0000 0.0000 1.0000
vn 0.0000 0.0000 1.0000
vn 0.0000 0.0000 1.0000
vn 1.0000 0.0000 0.0000
vn 1.0000 0.0000 0.0000
vn 1.0000 0.0000 0.0000
vn 1.0000 0.0000 0.0000
vn 1.0000 0.0000 0.0000
vn 1.0000 0.0000 0.0000
vn 1.0000 0.0000 0.0000
vn 1.0000 0.0000 0.0000
vn 1.0000 0.0000 0.0000
vn 1.0000 0.0000 0.0000
vn 1.0000 0.0000 0.0000
vn 1.0000 0.0000 0.0000
vn 1.0000 0.0000 0.0000
vn 1.0000 0.0000 0.0000
vn 1.0000 0.0000 0.0000
vn 1.0000 0.0000 0.0000
vn 1.0000 0.0000 0.0000
vn 1.0000 0.0000 0.0000
vn 1.0000 0.0000 0.0000
vn 1.0000 0.0000 0.0000
vn 1.0000 0.0000 0.0000
vn 1.0000 0.0000 0.0000
vn 1.0000 0.0000 0.0000
vn 1.0000 0.0000 0.0000
vn 0.0000 0.0000 -1.0000
vn 0.0000 0.0000 -1.0000
vn 0.0000 0.0000 -1.0000
vn 0.0000 0.0000 -1.0000
vn 0.0000 0.0000 -1.0000
vn 0.0000 0.0000 -1.0000
# 444 vertex normals

vt 0.3933 0.5227 0.0000
vt 0.3931 0.4936 0.0000
vt 0.4233 0.4936 0.0000
vt 0.4244 0.5223 0.0000
vt 0.5423 0.9699 0.0000
vt 0.5739 0.9699 0.0000
vt 0.5739 0.9995 0.0000
vt 0.5423 0.9995 0.0000
vt 0.4247 0.5643 0.0000
vt 0.3936 0.5646 0.0000
vt 0.0309 0.5212 0.0000
vt 0.0327 0.4915 0.0000
vt 0.0740 0.4946 0.0000
vt 0.0733 0.5234 0.0000
vt 0.0730 0.0006 0.0000
vt 0.1083 0.0005 0.0000
vt 0.1084 0.0424 0.0000
vt 0.0731 0.0426 0.0000
vt 0.4672 0.0444 0.0000
vt 0.4657 0.0782 0.0000
vt 0.4242 0.0759 0.0000
vt 0.4246 0.0429 0.0000
vt 0.0702 0.2396 0.0000
vt 0.1049 0.2425 0.0000
vt 0.0994 0.2876 0.0000
vt 0.0596 0.2853 0.0000
vt 0.5423 0.7173 0.0000
vt 0.5739 0.7173 0.0000
vt 0.5739 0.7555 0.0000
vt 0.5423 0.7555 0.0000
vt 0.0309 0.2459 0.0000
vt 0.0106 0.2854 0.0000
vt 0.4676 0.3227 0.0000
vt 0.4285 0.3293 0.0000
vt 0.4384 0.2808 0.0000
vt 0.4873 0.2804 0.0000
vt 0.1087 0.4944 0.0000
vt 0.1086 0.5235 0.0000
vt 0.8988 0.7555 0.0000
vt 0.8988 0.7962 0.0000
vt 0.8630 0.7962 0.0000
vt 0.8630 0.7555 0.0000
vt 0.0733 0.5655 0.0000
vt 0.1087 0.5655 0.0000
vt 0.3935 0.0008 0.0000
vt 0.3934 0.0428 0.0000
vt 0.3933 0.0761 0.0000
vt 0.1084 0.0756 0.0000
vt 0.8988 0.5100 0.0000
vt 0.8988 0.5437 0.0000
vt 0.8630 0.5437 0.0000
vt 0.8630 0.5100 0.0000
vt 0.5739 0.7962 0.0000
vt 0.5739 0.5437 0.0000
vt 0.5739 0.5100 0.0000
vt 0.4247 0.0009 0.0000
vt 0.4667 0.2411 0.0000
vt 0.4279 0.2348 0.0000
vt 0.0739 0.0758 0.0000
vt 0.5423 0.5100 0.0000
vt 0.5423 0.5437 0.0000
vt 0.0300 0.0443 0.0000
vt 0.0316 0.0784 0.0000
vt 0.8226 0.2063 0.0000
vt 0.5434 0.2127 0.0000
vt 0.5406 0.0448 0.0000
vt 0.8266 0.0413 0.0000
vt 0.8988 0.7173 0.0000
vt 0.8630 0.7173 0.0000
vt 0.5739 0.7173 0.0000
vt 0.3994 0.2377 0.0000
vt 0.3977 0.3268 0.0000
vt 0.5423 0.7962 0.0000
vt 0.5739 0.7962 0.0000
vt 0.0306 0.3277 0.0000
vt 0.0696 0.3344 0.0000
vt 0.4670 0.5199 0.0000
vt 0.4651 0.4902 0.0000
vt 0.1022 0.3315 0.0000
vt 0.8988 0.9995 0.0000
vt 0.8630 0.9995 0.0000
vt 0.8630 0.9699 0.0000
vt 0.8988 0.9699 0.0000
vt 0.5452 0.3032 0.0000
vt 0.8250 0.2969 0.0000
vt 0.8266 0.4642 0.0000
vt 0.5437 0.4685 0.0000
vt 0.5423 0.7173 0.0000
vt 0.8342 0.2523 0.0000
vt 0.5339 0.2548 0.0000
vt 0.8630 0.7173 0.0000
vt 0.8988 0.7173 0.0000
vt 0.4032 0.2796 0.0000
vt 0.8630 0.7962 0.0000
vt 0.8988 0.7962 0.0000
vt 0.5423 0.7962 0.0000
vt 0.0205 0.3272 0.0000
vt 0.0005 0.2854 0.0000
vt 0.4974 0.2803 0.0000
vt 0.4777 0.3222 0.0000
vt 0.4768 0.2414 0.0000
vt 0.0208 0.2463 0.0000
vt 0.8679 0.0470 0.0000
vt 0.8605 0.2133 0.0000
vt 0.8784 0.2511 0.0000
vt 0.8617 0.2905 0.0000
vt 0.8676 0.4576 0.0000
vt 0.8272 0.5046 0.0000
vt 0.5443 0.5089 0.0000
vt 0.5031 0.4624 0.0000
vt 0.5075 0.2963 0.0000
vt 0.4897 0.2561 0.0000
vt 0.5066 0.2190 0.0000
vt 0.4987 0.0506 0.0000
vt 0.5401 0.0039 0.0000
vt 0.8261 0.0005 0.0000
# 116 texture coords

o t
g t
usemtl wire_143225087
s off
f 1/1/1 2/2/2 3/3/3 
f 1/1/4 3/3/5 4/4/6 
f 5/5/7 6/6/8 7/7/9 
f 5/5/10 7/7/11 8/8/12 
f 8/9/13 7/10/14 1/1/15 
f 8/9/16 1/1/17 4/4/18 
f 9/11/19 10/12/20 11/13/21 
f 9/11/22 11/13/23 12/14/24 
f 13/15/25 14/16/26 15/17/27 
f 13/15/28 15/17/29 16/18/30 
f 17/19/31 18/20/32 19/21/33 
f 17/19/34 19/21/35 20/22/36 
f 21/23/37 22/24/38 23/25/39 
f 21/23/40 23/25/41 24/26/42 
f 25/27/43 26/28/44 27/29/45 
f 25/27/46 27/29/47 28/30/48 
f 29/31/49 21/23/50 24/26/51 
f 29/31/52 24/26/53 30/32/54 
f 31/33/55 32/34/56 33/35/57 
f 31/33/58 33/35/59 34/36/60 
f 12/14/61 11/13/62 35/37/63 
f 12/14/64 35/37/65 36/38/66 
f 37/39/67 38/40/68 39/41/69 
f 37/39/70 39/41/71 40/42/72 
f 9/43/73 12/14/74 36/38/75 
f 9/43/76 36/38/77 41/44/78 
f 42/45/79 43/46/80 15/17/81 
f 42/45/82 15/17/83 14/16/84 
f 43/46/85 44/47/86 45/48/87 
f 43/46/88 45/48/89 15/17/90 
f 13/49/91 46/50/92 47/51/93 
f 13/49/94 47/51/95 14/52/96 
f 36/38/97 35/37/98 2/2/99 
f 36/38/100 2/2/101 1/1/102 
f 40/42/103 39/41/104 48/53/105 
f 40/42/106 48/53/107 27/29/108 
f 41/44/109 36/38/110 1/1/111 
f 41/44/112 1/1/113 7/10/114 
f 14/52/115 47/51/116 49/54/117 
f 14/52/118 49/54/119 42/55/120 
f 17/56/121 20/22/122 43/46/123 
f 17/56/124 43/46/125 42/45/126 
f 20/22/127 19/21/128 44/47/129 
f 20/22/130 44/47/131 43/46/132 
f 50/57/133 51/58/134 19/21/135 
f 50/57/136 19/21/137 18/20/138 
f 16/18/139 15/17/140 45/48/141 
f 16/18/142 45/48/143 52/59/144 
f 17/60/145 42/55/146 49/54/147 
f 17/60/148 49/54/149 18/61/150 
f 13/62/151 16/18/152 52/59/153 
f 13/62/154 52/59/155 46/63/156 
f 53/64/157 54/65/158 55/66/159 
f 53/64/160 55/66/161 56/67/162 
f 29/68/163 57/69/164 47/51/165 
f 29/68/166 47/51/167 46/50/168 
f 57/69/169 58/70/170 49/54/171 
f 57/69/172 49/54/173 47/51/174 
f 51/58/175 59/71/176 19/21/177 
f 59/71/178 44/47/179 19/21/180 
f 60/72/181 32/34/182 2/2/183 
f 32/34/184 3/3/185 2/2/186 
f 31/73/187 61/74/188 6/6/189 
f 31/73/190 6/6/191 5/5/192 
f 62/75/193 63/76/194 11/13/195 
f 62/75/196 11/13/197 10/12/198 
f 8/77/199 4/4/200 3/3/201 
f 8/77/202 3/3/203 5/78/204 
f 63/76/205 64/79/206 35/37/207 
f 63/76/208 35/37/209 11/13/210 
f 9/80/211 41/81/212 65/82/213 
f 9/80/214 65/82/215 10/83/216 
f 66/84/217 67/85/218 68/86/219 
f 66/84/220 68/86/221 69/87/222 
f 41/81/223 7/7/224 6/6/225 
f 41/81/226 6/6/227 65/82/228 
f 52/59/229 45/48/230 22/24/231 
f 52/59/232 22/24/233 21/23/234 
f 18/61/235 49/54/236 58/70/237 
f 18/61/238 58/70/239 50/88/240 
f 46/63/241 52/59/242 21/23/243 
f 46/63/244 21/23/245 29/31/246 
f 34/36/247 33/35/248 51/58/249 
f 34/36/250 51/58/251 50/57/252 
f 70/89/253 71/90/254 54/65/255 
f 70/89/256 54/65/257 53/64/258 
f 37/39/259 40/42/260 72/91/261 
f 37/39/262 72/91/263 73/92/264 
f 40/42/265 27/29/266 26/28/267 
f 40/42/268 26/28/269 72/91/270 
f 33/35/271 74/93/272 59/71/273 
f 33/35/274 59/71/275 51/58/276 
f 5/78/277 3/3/278 32/34/279 
f 5/78/280 32/34/281 31/33/282 
f 10/83/283 65/82/284 75/94/285 
f 10/83/286 75/94/287 62/95/288 
f 65/82/289 6/6/290 61/74/291 
f 65/82/292 61/74/293 75/94/294 
f 74/93/295 33/35/296 32/34/297 
f 74/93/298 32/34/299 60/72/300 
f 28/30/301 27/29/302 48/53/303 
f 28/30/304 48/53/305 76/96/306 
f 30/32/307 24/26/308 62/75/309 
f 24/26/310 63/76/311 62/75/312 
f 24/26/313 23/25/314 64/79/315 
f 24/26/316 64/79/317 63/76/318 
f 71/90/319 70/89/320 67/85/321 
f 71/90/322 67/85/323 66/84/324 
f 30/32/325 62/75/326 38/97/327 
f 30/32/328 38/97/329 37/98/330 
f 62/95/331 75/94/332 39/41/333 
f 62/95/334 39/41/335 38/40/336 
f 75/94/337 61/74/338 48/53/339 
f 75/94/340 48/53/341 39/41/342 
f 61/74/343 31/73/344 48/53/345 
f 31/73/346 76/96/347 48/53/348 
f 31/33/349 34/36/350 28/99/351 
f 31/33/352 28/99/353 76/100/354 
f 34/36/355 50/57/356 25/101/357 
f 34/36/358 25/101/359 28/99/360 
f 50/88/361 58/70/362 26/28/363 
f 50/88/364 26/28/365 25/27/366 
f 58/70/367 57/69/368 72/91/369 
f 58/70/370 72/91/371 26/28/372 
f 57/69/373 29/68/374 73/92/375 
f 57/69/376 73/92/377 72/91/378 
f 29/31/379 30/32/380 37/98/381 
f 29/31/382 37/98/383 73/102/384 
f 44/103/385 59/104/386 53/64/387 
f 44/103/388 53/64/389 56/67/390 
f 59/104/391 74/105/392 70/89/393 
f 59/104/394 70/89/395 53/64/396 
f 74/105/397 60/106/398 67/85/399 
f 74/105/400 67/85/401 70/89/402 
f 60/106/403 2/107/404 68/86/405 
f 60/106/406 68/86/407 67/85/408 
f 2/108/409 35/109/410 69/87/411 
f 2/108/412 69/87/413 68/86/414 
f 35/110/415 64/111/416 69/87/417 
f 64/111/418 66/84/419 69/87/420 
f 64/111/421 23/112/422 71/90/423 
f 64/111/424 71/90/425 66/84/426 
f 23/112/427 22/113/428 54/65/429 
f 23/112/430 54/65/431 71/90/432 
f 22/113/433 45/114/434 55/66/435 
f 22/113/436 55/66/437 54/65/438 
f 45/115/439 44/116/440 56/67/441 
f 45/115/442 56/67/443 55/66/444 
# 0 polygons - 148 triangles

